<svg width="15" height="22" viewBox="0 0 15 22" fill="none" xmlns="http://www.w3.org/2000/svg">
<path fill-rule="evenodd" clip-rule="evenodd" d="M14.2969 0.69607V0.806049C14.7314 1.26314 15 1.87661 15 2.55226V19.49C15 20.3206 14.6827 20.7805 14.2969 20.9935V21.3462L14.0456 21.097C13.9411 21.1257 13.8366 21.1448 13.7339 21.1448C13.3125 21.1448 12.8892 20.9369 12.4744 20.5262L8.32875 16.4222C7.88953 15.9869 7.11141 15.9869 6.67172 16.4222L2.52609 20.5262C2.11125 20.9369 1.6875 21.1448 1.26656 21.1448C1.16391 21.1448 1.05937 21.1257 0.954844 21.097L0.703125 21.3462V20.9935C0.317344 20.7805 0 20.3206 0 19.49V2.55226C0 1.87661 0.268594 1.26314 0.703125 0.806049V0.69607H0.814219C1.27594 0.265899 1.89562 0 2.57812 0H12.4219C13.1044 0 13.7241 0.265899 14.1858 0.69607H14.2969ZM7.41609 14.7006L7.5 14.6922L7.58391 14.7006L7.5 14.6175L7.41609 14.7006Z" fill="#FF9518"/>
</svg>
