<svg width="16" height="20" viewBox="0 0 16 20" fill="none" xmlns="http://www.w3.org/2000/svg">
<rect width="16" height="20" rx="3" fill="#333333"/>
<path fill-rule="evenodd" clip-rule="evenodd" d="M8.00006 5C7.6235 5 7.31824 5.30526 7.31824 5.68182V9.31825H3.68182C3.30526 9.31825 3 9.62351 3 10.0001C3 10.3766 3.30526 10.6819 3.68182 10.6819H7.31824V14.3182C7.31824 14.6947 7.6235 15 8.00006 15C8.37661 15 8.68187 14.6947 8.68187 14.3182V10.6819H12.3182C12.6947 10.6819 13 10.3766 13 10.0001C13 9.62351 12.6947 9.31825 12.3182 9.31825H8.68187V5.68182C8.68187 5.30526 8.37661 5 8.00006 5Z" fill="white"/>
</svg>
