<svg width="24" height="24" viewBox="0 0 24 24" fill="none" xmlns="http://www.w3.org/2000/svg">
<path fill-rule="evenodd" clip-rule="evenodd" d="M6.10045 6.34315C5.67442 6.76918 5.67442 7.4599 6.10045 7.88593L10.2145 12L6.10045 16.1141C5.67442 16.5401 5.67442 17.2308 6.10045 17.6568C6.52648 18.0829 7.2172 18.0829 7.64323 17.6568L11.7573 13.5428L15.8714 17.6569C16.2974 18.0829 16.9881 18.0829 17.4142 17.6569C17.8402 17.2308 17.8402 16.5401 17.4142 16.1141L13.3001 12L17.4142 7.88592C17.8402 7.45989 17.8402 6.76917 17.4142 6.34314C16.9881 5.91711 16.2974 5.91711 15.8714 6.34314L11.7573 10.4572L7.64323 6.34315C7.2172 5.91713 6.52648 5.91713 6.10045 6.34315Z" fill="#999999"/>
</svg>
